<svg xmlns="http://www.w3.org/2000/svg" xmlns:xlink="http://www.w3.org/1999/xlink"><defs><style>
    .sprite-symbol-usage {display: none;}
    .sprite-symbol-usage:target {display: inline;}
  </style><symbol viewBox="0 0 17.2 9.2" id="chevron_down"><path d="M16 .2a.69.69 0 0 1 1 0 .68.68 0 0 1 0 1L9.09 9a.69.69 0 0 1-1 0L.2 1.17a.68.68 0 0 1 0-1 .69.69 0 0 1 1 0l7.4 7.17Z" style="fill:currentColor" /></symbol><symbol viewBox="0 0 22 22" id="close"><path d="m1 1 20 20m0-20L1 21" style="fill:none;stroke:currentColor;stroke-linecap:square;stroke-width:2px" /></symbol><symbol viewBox="0 0 7.62 16.26" id="facebook"><path d="M5 16.26H1.39v-8.1H0V5.41h1.38V4a10.81 10.81 0 0 1 .11-1.5A2.72 2.72 0 0 1 3.85.1a5.63 5.63 0 0 1 .92-.1h2.85v2.76H6c-.79 0-1 .23-1 1v1.59h2.45l-.29 2.79H5Z" style="fill:currentColor" /></symbol><symbol viewBox="0 0 16 16" id="instagram"><path d="M16 8c0 1.13 0 2.24-.05 3.36a5.22 5.22 0 0 1-.59 2.36 4.17 4.17 0 0 1-2.91 2.1 9.9 9.9 0 0 1-1.88.18H4.66a5.07 5.07 0 0 1-2.37-.59 4.11 4.11 0 0 1-2.08-2.8 8.78 8.78 0 0 1-.21-2V8.12c0-1.26 0-2.53.09-3.78A4.43 4.43 0 0 1 1 1.75 4.07 4.07 0 0 1 3.71.17a13 13 0 0 1 2-.17H8.1c1.09 0 2.17 0 3.25.06a5.06 5.06 0 0 1 2.52.67 4.16 4.16 0 0 1 2 2.83A8.6 8.6 0 0 1 16 5.7V8m-1.43 0V6.07c0-.64 0-1.34-.11-2A2.73 2.73 0 0 0 12.2 1.6a8.74 8.74 0 0 0-1.91-.14H6.13c-.67 0-1.36 0-2 .11a2.73 2.73 0 0 0-2.52 2.27 9.7 9.7 0 0 0-.15 1.94v4.69a12.78 12.78 0 0 0 .13 1.62 2.71 2.71 0 0 0 2.2 2.3 9.2 9.2 0 0 0 2 .15h4.94a7.76 7.76 0 0 0 1.52-.15 2.56 2.56 0 0 0 1.93-1.47 3.67 3.67 0 0 0 .34-1.46c0-1.14.06-2.29.08-3.44M12.11 8A4.09 4.09 0 0 1 8 12.11 4.09 4.09 0 0 1 3.9 8a4.11 4.11 0 0 1 8.21 0m-1.44 0A2.66 2.66 0 1 0 8 10.67 2.67 2.67 0 0 0 10.67 8m1.61-5.22a1 1 0 0 1 1 1 1 1 0 1 1-1.92 0 1 1 0 0 1 1-1" fill="currentColor" /></symbol><symbol viewBox="0 0 17.99 34.24" id="left"><g fill="currentColor"><path d="M.005 16.979 15.797-.004l2.197 2.043L2.202 19.022z" /><path d="m.001 17.263 2.197-2.044L17.992 32.2l-2.196 2.043z" /></g></symbol><symbol viewBox="0 0 17 17" id="linkedin"><path d="M15.78 17H1.25A1.2 1.2 0 0 1 0 15.85V1.2A1.21 1.21 0 0 1 1.22 0H15.8A1.22 1.22 0 0 1 17 1.2v14.58A1.21 1.21 0 0 1 15.8 17ZM2.67 6.34c-.19 0-.19 0-.19.19v7.83a.23.23 0 0 0 0 .14.23.23 0 0 0 .14 0h2.27a.23.23 0 0 0 .14 0 .18.18 0 0 0 0-.14V6.51c0-.13 0-.17-.18-.17H2.67Zm7.93 2.07h.33a1 1 0 0 1 .89.84 4.24 4.24 0 0 1 .11.94V14.25c0 .2 0 .2.2.2h2.2c.18 0 .18 0 .18-.18V9.91a6.45 6.45 0 0 0-.22-1.86 2.34 2.34 0 0 0-1.36-1.65 3.36 3.36 0 0 0-1.13-.24h-.31a3 3 0 0 0-1.5.39 2.54 2.54 0 0 0-.94.93v-.96a.16.16 0 0 0 0-.13.18.18 0 0 0-.14 0H6.75c-.12 0-.16 0-.16.17v7.83c0 .19 0 .2.2.2H9c.18 0 .18 0 .18-.18v-3.93a5.54 5.54 0 0 1 .07-.81 1.4 1.4 0 0 1 .5-1 1.44 1.44 0 0 1 .85-.26Zm-6.83-6.1a1.49 1.49 0 1 0 1.49 1.52 1.55 1.55 0 0 0-.44-1.1 1.48 1.48 0 0 0-1.05-.43Z" fill="currentColor" /></symbol><symbol viewBox="0 0 17.2 12.28" id="mail"><path d="M15.38 12.28H1.66A1.59 1.59 0 0 1 .9 12a1.8 1.8 0 0 1-.9-1.28s0-.07 0-.11V1.5a1.83 1.83 0 0 1 .58-1A1.85 1.85 0 0 1 1.5 0h14.16a1.69 1.69 0 0 1 .84.34 1.87 1.87 0 0 1 .64.83 1.18 1.18 0 0 1 .09.37v8.86a2.64 2.64 0 0 1 0 .29 1.83 1.83 0 0 1-.58 1.09 1.79 1.79 0 0 1-1.27.5Zm-8.56-5-4.1 4.08h11.71L13.09 10l-2.7-2.7-.3.3-1.22 1.24a.26.26 0 0 1-.13.1.23.23 0 0 1-.11 0 .28.28 0 0 1-.23-.11L6.87 7.31Zm9.46-5.81L12.63 5.1l-1.57 1.57 4.58 4.59h.06a.68.68 0 0 0 .45-.39 1.4 1.4 0 0 0 .1-.57V1.45ZM1 1.5v9a1.37 1.37 0 0 0 0 .29.59.59 0 0 0 .37.49.05.05 0 0 0 .05 0L6.07 6.7h.06L1 1.5Zm.82-.5.08.09 6.5 6.45a.27.27 0 0 0 .08.07.26.26 0 0 0 .15 0 .32.32 0 0 0 .24-.11l4.35-4.35L15.4 1Z" fill="currentColor" /></symbol><symbol viewBox="0 0 13.89 16.07" id="phone_icon"><path d="M.12 3.05a1.24 1.24 0 0 1 .13-.5A3.78 3.78 0 0 1 1.13 1a4.76 4.76 0 0 1 1-.78 1.16 1.16 0 0 1 1.49.23l1.26 1.6.72.95a1.15 1.15 0 0 1-.15 1.7 11.22 11.22 0 0 1-1 .83l-.3.21a12.76 12.76 0 0 0 1.44 2.9 11.62 11.62 0 0 0 3.06 2.9 7.79 7.79 0 0 1 .87-.64 3.13 3.13 0 0 1 .45-.39 1.17 1.17 0 0 1 1.43 0 2.25 2.25 0 0 1 .44.48c.6.76 1.22 1.53 1.79 2.28a1 1 0 0 1 .26.73v.33a1 1 0 0 1-.21.43 3.94 3.94 0 0 1-1.17.9 4 4 0 0 1-2.62.34 10 10 0 0 1-2.68-1.18 11.93 11.93 0 0 1-1.85-1.39 17.17 17.17 0 0 1-2-2.1A28.11 28.11 0 0 1 1.73 9 10.88 10.88 0 0 1 .34 6.16 6.68 6.68 0 0 1 0 4.33a1.3 1.3 0 0 1 0-.52Z" style="fill:currentColor" /></symbol><symbol viewBox="0 0 17.99 34.24" id="right"><g fill="currentColor"><path d="M.006 2.04 2.203-.004l15.792 16.982-2.197 2.043z" /><path d="m-.002 32.196 15.795-16.98 2.196 2.044L2.194 34.24z" /></g></symbol><symbol viewBox="0 0 17.52 14.29" id="twitter"><path d="M17.06.28a3.81 3.81 0 0 1-1.49 2 8.18 8.18 0 0 0 1.95-.48c-.13.18-.26.36-.41.53-.4.4-.82.79-1.24 1.18a.32.32 0 0 0-.12.26 10.37 10.37 0 0 1-2.46 7 9.51 9.51 0 0 1-6 3.41A10.3 10.3 0 0 1 .61 13c-.17-.09-.34-.2-.5-.3L0 12.67a7.56 7.56 0 0 0 2.8-.23 7.46 7.46 0 0 0 2.5-1.26 3.72 3.72 0 0 1-2.08-.73A3.47 3.47 0 0 1 2 8.67a3.67 3.67 0 0 0 1.58-.06A3.6 3.6 0 0 1 1.23 7a3.38 3.38 0 0 1-.54-2 3.71 3.71 0 0 0 1.6.43A3.6 3.6 0 0 1 .74 2.87 3.43 3.43 0 0 1 1.2.68a10.32 10.32 0 0 0 7.42 3.76c0-.22-.06-.41-.07-.61A3.54 3.54 0 0 1 11 .2a3.47 3.47 0 0 1 3.59.8.41.41 0 0 0 .43.12 7.63 7.63 0 0 0 1.86-.75l.18-.09" fill="currentColor" /></symbol></defs><use id="chevron_down-usage" xlink:href="#chevron_down" class="sprite-symbol-usage" /><use id="close-usage" xlink:href="#close" class="sprite-symbol-usage" /><use id="facebook-usage" xlink:href="#facebook" class="sprite-symbol-usage" /><use id="instagram-usage" xlink:href="#instagram" class="sprite-symbol-usage" /><use id="left-usage" xlink:href="#left" class="sprite-symbol-usage" /><use id="linkedin-usage" xlink:href="#linkedin" class="sprite-symbol-usage" /><use id="mail-usage" xlink:href="#mail" class="sprite-symbol-usage" /><use id="phone_icon-usage" xlink:href="#phone_icon" class="sprite-symbol-usage" /><use id="right-usage" xlink:href="#right" class="sprite-symbol-usage" /><use id="twitter-usage" xlink:href="#twitter" class="sprite-symbol-usage" /></svg>